# xmcd
#
# Track frame offsets:
#	150
#	12305
#	29124
#	43565
#	58178
#	70662
#	84021
#	97667
#	112537
#	133241
#
# Disc length: 1971 seconds
#
# Revision: 0
# Processed by: cddbd v1.5.1PL2 Copyright (c) Steve Scherf et al.
# Submitted via: EasyCDDAExtractor 4.6.9.1
#
DISCID=7407b10a
DTITLE=Waylon Jennings - Turn The Page
DYEAR=1985
DGENRE=Country
TTITLE0=The Devil's On The Loose
TTITLE1=You Showed Me Something About Lovin' (I Never Knew Was)
TTITLE2=Good Morning, John (For Johnny Cash, My Friend For 20 Years)
TTITLE3=The Broken Promise Land
TTITLE4=Don't Bring It Around Anymore
TTITLE5=Rhiannon
TTITLE6=Drinkin' And Dreamin'
TTITLE7=As Far As The Eye Can See
TTITLE8=Turn The Page
TTITLE9=Those Kind Of Memories
EXTD=(p)1985 RCA Victor r\n
EXTT0=
EXTT1=
EXTT2=
EXTT3=
EXTT4=
EXTT5=
EXTT6=
EXTT7=
EXTT8=
EXTT9=
PLAYORDER=
